<mxfile host="app.diagrams.net" modified="2021-05-19T05:14:57.006Z" agent="5.0 (Windows NT 10.0; Win64; x64) AppleWebKit/537.36 (KHTML, like Gecko) Chrome/90.0.4430.212 Safari/537.36" etag="gk9IejGQhS7RdSiASlS8" version="14.5.8" type="github">
  <diagram id="PcK8HiPGNt8-FAUTrwxG" name="第 1 页">
    <mxGraphModel dx="1038" dy="547" grid="1" gridSize="10" guides="1" tooltips="1" connect="1" arrows="1" fold="1" page="1" pageScale="1" pageWidth="827" pageHeight="1169" math="1" shadow="0">
      <root>
        <mxCell id="0" />
        <mxCell id="1" parent="0" />
        <mxCell id="slfy005rtpeVditU27t0-1" value="" style="rounded=0;whiteSpace=wrap;html=1;fontFamily=Helvetica;fontSize=13;" parent="1" vertex="1">
          <mxGeometry x="411" y="820" width="326" height="150" as="geometry" />
        </mxCell>
        <mxCell id="slfy005rtpeVditU27t0-2" value="" style="shape=curlyBracket;whiteSpace=wrap;html=1;rounded=1;fontFamily=Helvetica;fontSize=13;" parent="1" vertex="1">
          <mxGeometry x="200" y="557.5" width="20" height="230" as="geometry" />
        </mxCell>
        <mxCell id="slfy005rtpeVditU27t0-3" value="&lt;font style=&quot;font-size: 18px&quot;&gt;Input&lt;br&gt;Signals&lt;/font&gt;" style="text;html=1;strokeColor=none;fillColor=none;align=center;verticalAlign=middle;whiteSpace=wrap;rounded=0;fontFamily=Helvetica;fontSize=14;rotation=0;fontStyle=1" parent="1" vertex="1">
          <mxGeometry x="150" y="662.5" width="40" height="20" as="geometry" />
        </mxCell>
        <mxCell id="slfy005rtpeVditU27t0-4" value="" style="ellipse;whiteSpace=wrap;html=1;aspect=fixed;fontFamily=Helvetica;fontSize=13;fillColor=#bac8d3;strokeColor=#23445d;" parent="1" vertex="1">
          <mxGeometry x="280" y="557.5" width="50" height="50" as="geometry" />
        </mxCell>
        <mxCell id="slfy005rtpeVditU27t0-5" value="" style="ellipse;whiteSpace=wrap;html=1;aspect=fixed;fontFamily=Helvetica;fontSize=13;fillColor=#bac8d3;strokeColor=#23445d;" parent="1" vertex="1">
          <mxGeometry x="280" y="617.5" width="50" height="50" as="geometry" />
        </mxCell>
        <mxCell id="slfy005rtpeVditU27t0-6" value="" style="ellipse;whiteSpace=wrap;html=1;aspect=fixed;fontFamily=Helvetica;fontSize=13;fillColor=#bac8d3;strokeColor=#23445d;" parent="1" vertex="1">
          <mxGeometry x="280" y="727.5" width="50" height="50" as="geometry" />
        </mxCell>
        <mxCell id="slfy005rtpeVditU27t0-7" value="" style="endArrow=none;dashed=1;html=1;dashPattern=1 3;strokeWidth=2;fontFamily=Times New Roman;fontSize=10;fontColor=#808080;entryX=0.5;entryY=1;entryDx=0;entryDy=0;exitX=0.5;exitY=0;exitDx=0;exitDy=0;" parent="1" source="slfy005rtpeVditU27t0-6" target="slfy005rtpeVditU27t0-5" edge="1">
          <mxGeometry width="50" height="50" relative="1" as="geometry">
            <mxPoint x="540" y="647.5" as="sourcePoint" />
            <mxPoint x="590" y="597.5" as="targetPoint" />
          </mxGeometry>
        </mxCell>
        <mxCell id="slfy005rtpeVditU27t0-8" value="" style="ellipse;whiteSpace=wrap;html=1;aspect=fixed;fontFamily=Times New Roman;fontSize=10;" parent="1" vertex="1">
          <mxGeometry x="420" y="557.5" width="30" height="30" as="geometry" />
        </mxCell>
        <mxCell id="slfy005rtpeVditU27t0-9" value="" style="ellipse;whiteSpace=wrap;html=1;aspect=fixed;fontFamily=Times New Roman;fontSize=10;" parent="1" vertex="1">
          <mxGeometry x="420" y="597.5" width="30" height="30" as="geometry" />
        </mxCell>
        <mxCell id="slfy005rtpeVditU27t0-10" value="" style="ellipse;whiteSpace=wrap;html=1;aspect=fixed;fontFamily=Times New Roman;fontSize=10;" parent="1" vertex="1">
          <mxGeometry x="420" y="637.5" width="30" height="30" as="geometry" />
        </mxCell>
        <mxCell id="slfy005rtpeVditU27t0-11" value="" style="ellipse;whiteSpace=wrap;html=1;aspect=fixed;fontFamily=Times New Roman;fontSize=10;" parent="1" vertex="1">
          <mxGeometry x="420" y="677.5" width="30" height="30" as="geometry" />
        </mxCell>
        <mxCell id="slfy005rtpeVditU27t0-12" value="" style="ellipse;whiteSpace=wrap;html=1;aspect=fixed;fontFamily=Times New Roman;fontSize=10;" parent="1" vertex="1">
          <mxGeometry x="420" y="757.5" width="30" height="30" as="geometry" />
        </mxCell>
        <mxCell id="slfy005rtpeVditU27t0-13" value="" style="endArrow=classic;html=1;fontFamily=Times New Roman;fontSize=10;fontColor=#808080;entryX=0;entryY=0.5;entryDx=0;entryDy=0;exitX=1;exitY=0.5;exitDx=0;exitDy=0;" parent="1" source="slfy005rtpeVditU27t0-4" target="slfy005rtpeVditU27t0-8" edge="1">
          <mxGeometry width="50" height="50" relative="1" as="geometry">
            <mxPoint x="330" y="587.5" as="sourcePoint" />
            <mxPoint x="380" y="537.5" as="targetPoint" />
          </mxGeometry>
        </mxCell>
        <mxCell id="slfy005rtpeVditU27t0-14" value="" style="endArrow=classic;html=1;fontFamily=Times New Roman;fontSize=10;fontColor=#808080;entryX=0;entryY=0.5;entryDx=0;entryDy=0;" parent="1" target="slfy005rtpeVditU27t0-8" edge="1">
          <mxGeometry width="50" height="50" relative="1" as="geometry">
            <mxPoint x="330" y="642.5" as="sourcePoint" />
            <mxPoint x="420" y="627.5" as="targetPoint" />
          </mxGeometry>
        </mxCell>
        <mxCell id="slfy005rtpeVditU27t0-15" value="" style="endArrow=classic;html=1;fontFamily=Times New Roman;fontSize=10;fontColor=#808080;entryX=0;entryY=0.5;entryDx=0;entryDy=0;exitX=1;exitY=0.5;exitDx=0;exitDy=0;" parent="1" source="slfy005rtpeVditU27t0-6" target="slfy005rtpeVditU27t0-9" edge="1">
          <mxGeometry width="50" height="50" relative="1" as="geometry">
            <mxPoint x="280" y="757.5" as="sourcePoint" />
            <mxPoint x="370" y="742.5" as="targetPoint" />
          </mxGeometry>
        </mxCell>
        <mxCell id="slfy005rtpeVditU27t0-16" value="" style="endArrow=classic;html=1;fontFamily=Times New Roman;fontSize=10;fontColor=#808080;entryX=0;entryY=0.5;entryDx=0;entryDy=0;" parent="1" target="slfy005rtpeVditU27t0-10" edge="1">
          <mxGeometry width="50" height="50" relative="1" as="geometry">
            <mxPoint x="330" y="757.5" as="sourcePoint" />
            <mxPoint x="430.1300000000001" y="627.405" as="targetPoint" />
          </mxGeometry>
        </mxCell>
        <mxCell id="slfy005rtpeVditU27t0-17" value="" style="endArrow=classic;html=1;fontFamily=Times New Roman;fontSize=10;fontColor=#808080;entryX=0.407;entryY=0.333;entryDx=0;entryDy=0;entryPerimeter=0;" parent="1" edge="1">
          <mxGeometry width="50" height="50" relative="1" as="geometry">
            <mxPoint x="330" y="757.5" as="sourcePoint" />
            <mxPoint x="420.1300000000001" y="577.405" as="targetPoint" />
          </mxGeometry>
        </mxCell>
        <mxCell id="slfy005rtpeVditU27t0-18" value="" style="endArrow=classic;html=1;fontFamily=Times New Roman;fontSize=10;fontColor=#808080;entryX=0;entryY=0.5;entryDx=0;entryDy=0;" parent="1" target="slfy005rtpeVditU27t0-11" edge="1">
          <mxGeometry width="50" height="50" relative="1" as="geometry">
            <mxPoint x="330" y="757.5" as="sourcePoint" />
            <mxPoint x="420.1300000000001" y="697.505" as="targetPoint" />
          </mxGeometry>
        </mxCell>
        <mxCell id="slfy005rtpeVditU27t0-19" value="" style="endArrow=classic;html=1;fontFamily=Times New Roman;fontSize=10;fontColor=#808080;entryX=0;entryY=0.5;entryDx=0;entryDy=0;" parent="1" edge="1">
          <mxGeometry width="50" height="50" relative="1" as="geometry">
            <mxPoint x="330" y="757.5" as="sourcePoint" />
            <mxPoint x="420" y="772.5" as="targetPoint" />
          </mxGeometry>
        </mxCell>
        <mxCell id="slfy005rtpeVditU27t0-20" value="" style="endArrow=classic;html=1;fontFamily=Times New Roman;fontSize=10;fontColor=#808080;entryX=0.146;entryY=0.667;entryDx=0;entryDy=0;exitX=1;exitY=0.5;exitDx=0;exitDy=0;entryPerimeter=0;" parent="1" source="slfy005rtpeVditU27t0-4" target="slfy005rtpeVditU27t0-9" edge="1">
          <mxGeometry width="50" height="50" relative="1" as="geometry">
            <mxPoint x="340" y="597.5" as="sourcePoint" />
            <mxPoint x="430" y="582.5" as="targetPoint" />
          </mxGeometry>
        </mxCell>
        <mxCell id="slfy005rtpeVditU27t0-21" value="" style="endArrow=classic;html=1;fontFamily=Times New Roman;fontSize=10;fontColor=#808080;entryX=0;entryY=0.5;entryDx=0;entryDy=0;exitX=1;exitY=0.5;exitDx=0;exitDy=0;" parent="1" source="slfy005rtpeVditU27t0-4" target="slfy005rtpeVditU27t0-10" edge="1">
          <mxGeometry width="50" height="50" relative="1" as="geometry">
            <mxPoint x="331" y="587.5" as="sourcePoint" />
            <mxPoint x="434.3933982822018" y="633.1066017177982" as="targetPoint" />
          </mxGeometry>
        </mxCell>
        <mxCell id="slfy005rtpeVditU27t0-22" value="" style="endArrow=classic;html=1;fontFamily=Times New Roman;fontSize=10;fontColor=#808080;entryX=0;entryY=0.5;entryDx=0;entryDy=0;exitX=1;exitY=0.5;exitDx=0;exitDy=0;" parent="1" source="slfy005rtpeVditU27t0-4" target="slfy005rtpeVditU27t0-11" edge="1">
          <mxGeometry width="50" height="50" relative="1" as="geometry">
            <mxPoint x="350" y="602.5" as="sourcePoint" />
            <mxPoint x="440" y="672.5" as="targetPoint" />
          </mxGeometry>
        </mxCell>
        <mxCell id="slfy005rtpeVditU27t0-23" value="" style="endArrow=classic;html=1;fontFamily=Times New Roman;fontSize=10;fontColor=#808080;entryX=0;entryY=0.5;entryDx=0;entryDy=0;exitX=1;exitY=0.5;exitDx=0;exitDy=0;" parent="1" source="slfy005rtpeVditU27t0-4" edge="1">
          <mxGeometry width="50" height="50" relative="1" as="geometry">
            <mxPoint x="370" y="622.5" as="sourcePoint" />
            <mxPoint x="420" y="772.5" as="targetPoint" />
          </mxGeometry>
        </mxCell>
        <mxCell id="slfy005rtpeVditU27t0-24" value="" style="endArrow=classic;html=1;fontFamily=Times New Roman;fontSize=10;fontColor=#808080;entryX=0;entryY=0.5;entryDx=0;entryDy=0;exitX=1;exitY=0.5;exitDx=0;exitDy=0;" parent="1" source="slfy005rtpeVditU27t0-5" target="slfy005rtpeVditU27t0-9" edge="1">
          <mxGeometry width="50" height="50" relative="1" as="geometry">
            <mxPoint x="340" y="652.5" as="sourcePoint" />
            <mxPoint x="430" y="582.5" as="targetPoint" />
          </mxGeometry>
        </mxCell>
        <mxCell id="slfy005rtpeVditU27t0-25" value="" style="endArrow=classic;html=1;fontFamily=Times New Roman;fontSize=10;fontColor=#808080;entryX=0;entryY=0.5;entryDx=0;entryDy=0;exitX=1;exitY=0.5;exitDx=0;exitDy=0;" parent="1" source="slfy005rtpeVditU27t0-5" target="slfy005rtpeVditU27t0-10" edge="1">
          <mxGeometry width="50" height="50" relative="1" as="geometry">
            <mxPoint x="350" y="662.5" as="sourcePoint" />
            <mxPoint x="440" y="592.5" as="targetPoint" />
          </mxGeometry>
        </mxCell>
        <mxCell id="slfy005rtpeVditU27t0-26" value="" style="endArrow=classic;html=1;fontFamily=Times New Roman;fontSize=10;fontColor=#808080;entryX=0;entryY=0.5;entryDx=0;entryDy=0;exitX=1;exitY=0.5;exitDx=0;exitDy=0;" parent="1" source="slfy005rtpeVditU27t0-5" target="slfy005rtpeVditU27t0-11" edge="1">
          <mxGeometry width="50" height="50" relative="1" as="geometry">
            <mxPoint x="360" y="672.5" as="sourcePoint" />
            <mxPoint x="450" y="602.5" as="targetPoint" />
          </mxGeometry>
        </mxCell>
        <mxCell id="slfy005rtpeVditU27t0-27" value="" style="endArrow=classic;html=1;fontFamily=Times New Roman;fontSize=10;fontColor=#808080;entryX=0;entryY=0.5;entryDx=0;entryDy=0;exitX=1;exitY=0.5;exitDx=0;exitDy=0;" parent="1" source="slfy005rtpeVditU27t0-5" edge="1">
          <mxGeometry width="50" height="50" relative="1" as="geometry">
            <mxPoint x="380" y="692.5" as="sourcePoint" />
            <mxPoint x="420" y="772.5" as="targetPoint" />
          </mxGeometry>
        </mxCell>
        <mxCell id="slfy005rtpeVditU27t0-28" value="&lt;font style=&quot;font-size: 15px&quot;&gt;Input Layer&lt;/font&gt;" style="text;html=1;strokeColor=none;fillColor=none;align=center;verticalAlign=middle;whiteSpace=wrap;rounded=0;fontFamily=Helvetica;fontSize=14;fontColor=#000033;fontStyle=1" parent="1" vertex="1">
          <mxGeometry x="257.5" y="520" width="95" height="27.5" as="geometry" />
        </mxCell>
        <mxCell id="slfy005rtpeVditU27t0-29" value="&lt;font style=&quot;font-size: 15px&quot;&gt;Hidden Layer&lt;/font&gt;" style="text;html=1;strokeColor=none;fillColor=none;align=center;verticalAlign=middle;whiteSpace=wrap;rounded=0;fontFamily=Helvetica;fontSize=13;fontColor=#000033;fontStyle=1" parent="1" vertex="1">
          <mxGeometry x="385" y="523.75" width="100" height="20" as="geometry" />
        </mxCell>
        <mxCell id="slfy005rtpeVditU27t0-30" style="edgeStyle=orthogonalEdgeStyle;rounded=0;orthogonalLoop=1;jettySize=auto;html=1;exitX=1;exitY=0.5;exitDx=0;exitDy=0;fontFamily=Helvetica;fontSize=13;fontColor=#000033;" parent="1" source="slfy005rtpeVditU27t0-31" target="slfy005rtpeVditU27t0-39" edge="1">
          <mxGeometry relative="1" as="geometry" />
        </mxCell>
        <mxCell id="slfy005rtpeVditU27t0-31" value="" style="ellipse;whiteSpace=wrap;html=1;aspect=fixed;fontFamily=Times New Roman;fontSize=10;" parent="1" vertex="1">
          <mxGeometry x="549" y="627.5" width="60" height="60" as="geometry" />
        </mxCell>
        <mxCell id="slfy005rtpeVditU27t0-32" value="" style="endArrow=none;dashed=1;html=1;dashPattern=1 3;strokeWidth=2;fontFamily=Times New Roman;fontSize=10;fontColor=#000033;entryX=0.5;entryY=1;entryDx=0;entryDy=0;exitX=0.5;exitY=0;exitDx=0;exitDy=0;" parent="1" target="slfy005rtpeVditU27t0-11" edge="1">
          <mxGeometry width="50" height="50" relative="1" as="geometry">
            <mxPoint x="435" y="757.5" as="sourcePoint" />
            <mxPoint x="490" y="707.5" as="targetPoint" />
          </mxGeometry>
        </mxCell>
        <mxCell id="slfy005rtpeVditU27t0-33" value="" style="endArrow=classic;html=1;fontFamily=Times New Roman;fontSize=10;fontColor=#000033;exitX=1;exitY=0.5;exitDx=0;exitDy=0;entryX=0;entryY=0.5;entryDx=0;entryDy=0;" parent="1" source="slfy005rtpeVditU27t0-8" target="slfy005rtpeVditU27t0-31" edge="1">
          <mxGeometry width="50" height="50" relative="1" as="geometry">
            <mxPoint x="540" y="627.5" as="sourcePoint" />
            <mxPoint x="590" y="577.5" as="targetPoint" />
          </mxGeometry>
        </mxCell>
        <mxCell id="slfy005rtpeVditU27t0-34" value="" style="endArrow=classic;html=1;fontFamily=Times New Roman;fontSize=10;fontColor=#000033;exitX=1;exitY=0.5;exitDx=0;exitDy=0;entryX=0;entryY=0.5;entryDx=0;entryDy=0;" parent="1" source="slfy005rtpeVditU27t0-9" target="slfy005rtpeVditU27t0-31" edge="1">
          <mxGeometry width="50" height="50" relative="1" as="geometry">
            <mxPoint x="470" y="592.5" as="sourcePoint" />
            <mxPoint x="569" y="677.5" as="targetPoint" />
          </mxGeometry>
        </mxCell>
        <mxCell id="slfy005rtpeVditU27t0-35" value="" style="endArrow=classic;html=1;fontFamily=Times New Roman;fontSize=10;fontColor=#000033;exitX=1;exitY=0.5;exitDx=0;exitDy=0;entryX=0;entryY=0.5;entryDx=0;entryDy=0;" parent="1" source="slfy005rtpeVditU27t0-10" target="slfy005rtpeVditU27t0-31" edge="1">
          <mxGeometry width="50" height="50" relative="1" as="geometry">
            <mxPoint x="480" y="602.5" as="sourcePoint" />
            <mxPoint x="579" y="687.5" as="targetPoint" />
          </mxGeometry>
        </mxCell>
        <mxCell id="slfy005rtpeVditU27t0-36" value="" style="endArrow=classic;html=1;fontFamily=Times New Roman;fontSize=10;fontColor=#000033;exitX=1;exitY=0.5;exitDx=0;exitDy=0;entryX=0;entryY=0.5;entryDx=0;entryDy=0;" parent="1" source="slfy005rtpeVditU27t0-11" target="slfy005rtpeVditU27t0-31" edge="1">
          <mxGeometry width="50" height="50" relative="1" as="geometry">
            <mxPoint x="490" y="612.5" as="sourcePoint" />
            <mxPoint x="589" y="697.5" as="targetPoint" />
          </mxGeometry>
        </mxCell>
        <mxCell id="slfy005rtpeVditU27t0-37" value="" style="endArrow=classic;html=1;fontFamily=Times New Roman;fontSize=10;fontColor=#000033;exitX=1;exitY=0.5;exitDx=0;exitDy=0;" parent="1" edge="1">
          <mxGeometry width="50" height="50" relative="1" as="geometry">
            <mxPoint x="450" y="772.5" as="sourcePoint" />
            <mxPoint x="550" y="657.5" as="targetPoint" />
          </mxGeometry>
        </mxCell>
        <mxCell id="slfy005rtpeVditU27t0-38" value="&lt;font style=&quot;font-size: 15px&quot;&gt;Output Layer&lt;/font&gt;" style="text;html=1;strokeColor=none;fillColor=none;align=center;verticalAlign=middle;whiteSpace=wrap;rounded=0;fontFamily=Helvetica;fontSize=13;fontColor=#000033;fontStyle=1" parent="1" vertex="1">
          <mxGeometry x="522" y="522.5" width="104" height="22.5" as="geometry" />
        </mxCell>
        <mxCell id="slfy005rtpeVditU27t0-39" value="&lt;b&gt;&lt;font style=&quot;font-size: 18px&quot;&gt;Output&lt;/font&gt;&lt;/b&gt;" style="text;html=1;strokeColor=none;fillColor=none;align=center;verticalAlign=middle;whiteSpace=wrap;rounded=0;fontFamily=Helvetica;fontSize=14;fontColor=#000033;" parent="1" vertex="1">
          <mxGeometry x="640" y="647.5" width="70" height="20" as="geometry" />
        </mxCell>
        <mxCell id="slfy005rtpeVditU27t0-44" value="" style="endArrow=classic;html=1;entryX=0;entryY=0.5;entryDx=0;entryDy=0;" parent="1" target="slfy005rtpeVditU27t0-4" edge="1">
          <mxGeometry width="50" height="50" relative="1" as="geometry">
            <mxPoint x="230" y="583" as="sourcePoint" />
            <mxPoint x="440" y="710" as="targetPoint" />
          </mxGeometry>
        </mxCell>
        <mxCell id="slfy005rtpeVditU27t0-45" value="" style="endArrow=classic;html=1;entryX=0;entryY=0.5;entryDx=0;entryDy=0;" parent="1" edge="1">
          <mxGeometry width="50" height="50" relative="1" as="geometry">
            <mxPoint x="230" y="642.5" as="sourcePoint" />
            <mxPoint x="280" y="642" as="targetPoint" />
          </mxGeometry>
        </mxCell>
        <mxCell id="slfy005rtpeVditU27t0-46" value="" style="endArrow=classic;html=1;entryX=0;entryY=0.5;entryDx=0;entryDy=0;" parent="1" edge="1">
          <mxGeometry width="50" height="50" relative="1" as="geometry">
            <mxPoint x="230" y="758" as="sourcePoint" />
            <mxPoint x="280" y="757.5" as="targetPoint" />
          </mxGeometry>
        </mxCell>
        <mxCell id="slfy005rtpeVditU27t0-47" value="" style="rounded=0;whiteSpace=wrap;html=1;fillColor=none;strokeWidth=2;" parent="1" vertex="1">
          <mxGeometry x="403.75" y="744.38" width="62.5" height="56.25" as="geometry" />
        </mxCell>
        <mxCell id="slfy005rtpeVditU27t0-48" value="" style="whiteSpace=wrap;html=1;aspect=fixed;strokeColor=#000000;strokeWidth=2;fillColor=none;" parent="1" vertex="1">
          <mxGeometry x="532.75" y="611.25" width="92.5" height="92.5" as="geometry" />
        </mxCell>
        <mxCell id="slfy005rtpeVditU27t0-52" value="" style="endArrow=block;html=1;entryX=0.5;entryY=0;entryDx=0;entryDy=0;exitX=0.5;exitY=1;exitDx=0;exitDy=0;endFill=0;" parent="1" source="slfy005rtpeVditU27t0-47" target="slfy005rtpeVditU27t0-1" edge="1">
          <mxGeometry width="50" height="50" relative="1" as="geometry">
            <mxPoint x="390" y="750" as="sourcePoint" />
            <mxPoint x="440" y="700" as="targetPoint" />
          </mxGeometry>
        </mxCell>
        <mxCell id="slfy005rtpeVditU27t0-53" value="" style="endArrow=block;html=1;exitX=0.5;exitY=1;exitDx=0;exitDy=0;endFill=0;entryX=0.5;entryY=0;entryDx=0;entryDy=0;" parent="1" source="slfy005rtpeVditU27t0-48" target="slfy005rtpeVditU27t0-1" edge="1">
          <mxGeometry width="50" height="50" relative="1" as="geometry">
            <mxPoint x="390" y="750" as="sourcePoint" />
            <mxPoint x="570" y="840" as="targetPoint" />
          </mxGeometry>
        </mxCell>
        <mxCell id="slfy005rtpeVditU27t0-54" value="" style="shape=curlyBracket;whiteSpace=wrap;html=1;rounded=1;fontFamily=Helvetica;fontSize=13;" parent="1" vertex="1">
          <mxGeometry x="472" y="860" width="15" height="100" as="geometry" />
        </mxCell>
        <mxCell id="slfy005rtpeVditU27t0-55" value="Input&lt;br style=&quot;font-size: 14px;&quot;&gt;Signals" style="text;html=1;strokeColor=none;fillColor=none;align=center;verticalAlign=middle;whiteSpace=wrap;rounded=0;fontFamily=Helvetica;fontSize=14;rotation=0;fontStyle=1" parent="1" vertex="1">
          <mxGeometry x="427" y="898.75" width="40" height="20" as="geometry" />
        </mxCell>
        <mxCell id="slfy005rtpeVditU27t0-63" value="&lt;font style=&quot;font-size: 11px&quot;&gt;W&lt;sub style=&quot;font-size: 11px&quot;&gt;j1&lt;/sub&gt;&lt;/font&gt;" style="ellipse;whiteSpace=wrap;html=1;aspect=fixed;fontFamily=Helvetica;fontSize=13;fillColor=#bac8d3;strokeColor=#23445d;" parent="1" vertex="1">
          <mxGeometry x="527" y="855" width="30" height="30" as="geometry" />
        </mxCell>
        <mxCell id="slfy005rtpeVditU27t0-64" value="&lt;font style=&quot;font-size: 12px&quot;&gt;W&lt;sub&gt;j2&lt;/sub&gt;&lt;/font&gt;" style="ellipse;whiteSpace=wrap;html=1;aspect=fixed;fontFamily=Helvetica;fontSize=13;fillColor=#bac8d3;strokeColor=#23445d;" parent="1" vertex="1">
          <mxGeometry x="527" y="890" width="33.75" height="33.75" as="geometry" />
        </mxCell>
        <mxCell id="slfy005rtpeVditU27t0-65" value="&lt;font style=&quot;font-size: 12px&quot;&gt;W&lt;sub&gt;jn&lt;/sub&gt;&lt;/font&gt;" style="ellipse;whiteSpace=wrap;html=1;aspect=fixed;fontFamily=Helvetica;fontSize=13;fillColor=#bac8d3;strokeColor=#23445d;" parent="1" vertex="1">
          <mxGeometry x="527" y="935" width="30" height="30" as="geometry" />
        </mxCell>
        <mxCell id="slfy005rtpeVditU27t0-66" value="" style="endArrow=none;dashed=1;html=1;dashPattern=1 3;strokeWidth=2;fontFamily=Times New Roman;fontSize=10;fontColor=#808080;entryX=0.5;entryY=1;entryDx=0;entryDy=0;exitX=0.5;exitY=0;exitDx=0;exitDy=0;" parent="1" source="slfy005rtpeVditU27t0-65" target="slfy005rtpeVditU27t0-64" edge="1">
          <mxGeometry width="50" height="50" relative="1" as="geometry">
            <mxPoint x="812" y="862.5" as="sourcePoint" />
            <mxPoint x="862" y="812.5" as="targetPoint" />
          </mxGeometry>
        </mxCell>
        <mxCell id="slfy005rtpeVditU27t0-69" value="" style="endArrow=classic;html=1;entryX=0;entryY=0.5;entryDx=0;entryDy=0;" parent="1" target="slfy005rtpeVditU27t0-65" edge="1">
          <mxGeometry width="50" height="50" relative="1" as="geometry">
            <mxPoint x="512" y="950" as="sourcePoint" />
            <mxPoint x="537" y="949.5" as="targetPoint" />
          </mxGeometry>
        </mxCell>
        <mxCell id="slfy005rtpeVditU27t0-72" value="" style="endArrow=classic;html=1;entryX=0;entryY=0.5;entryDx=0;entryDy=0;" parent="1" target="slfy005rtpeVditU27t0-64" edge="1">
          <mxGeometry width="50" height="50" relative="1" as="geometry">
            <mxPoint x="512" y="909" as="sourcePoint" />
            <mxPoint x="547" y="959.5" as="targetPoint" />
          </mxGeometry>
        </mxCell>
        <mxCell id="slfy005rtpeVditU27t0-73" value="" style="endArrow=classic;html=1;entryX=0;entryY=0.5;entryDx=0;entryDy=0;" parent="1" target="slfy005rtpeVditU27t0-63" edge="1">
          <mxGeometry width="50" height="50" relative="1" as="geometry">
            <mxPoint x="512" y="870" as="sourcePoint" />
            <mxPoint x="557" y="969.5" as="targetPoint" />
          </mxGeometry>
        </mxCell>
        <mxCell id="slfy005rtpeVditU27t0-74" value="&lt;b&gt;&lt;font style=&quot;font-size: 13px&quot;&gt;Connection weights&lt;/font&gt;&lt;/b&gt;" style="text;html=1;strokeColor=none;fillColor=none;align=center;verticalAlign=middle;whiteSpace=wrap;rounded=0;" parent="1" vertex="1">
          <mxGeometry x="527" y="830" width="40" height="20" as="geometry" />
        </mxCell>
        <mxCell id="slfy005rtpeVditU27t0-75" value="X&lt;sub&gt;1&lt;/sub&gt;" style="text;html=1;strokeColor=none;fillColor=none;align=center;verticalAlign=middle;whiteSpace=wrap;rounded=0;" parent="1" vertex="1">
          <mxGeometry x="479" y="860" width="40" height="20" as="geometry" />
        </mxCell>
        <mxCell id="slfy005rtpeVditU27t0-76" value="X&lt;span style=&quot;font-size: 10px&quot;&gt;&lt;sub&gt;2&lt;/sub&gt;&lt;/span&gt;" style="text;html=1;strokeColor=none;fillColor=none;align=center;verticalAlign=middle;whiteSpace=wrap;rounded=0;" parent="1" vertex="1">
          <mxGeometry x="479" y="898.75" width="40" height="20" as="geometry" />
        </mxCell>
        <mxCell id="slfy005rtpeVditU27t0-77" value="X&lt;span style=&quot;font-size: 6.94444px&quot;&gt;&lt;sub&gt;n&lt;/sub&gt;&lt;/span&gt;" style="text;html=1;strokeColor=none;fillColor=none;align=center;verticalAlign=middle;whiteSpace=wrap;rounded=0;" parent="1" vertex="1">
          <mxGeometry x="479" y="940" width="40" height="20" as="geometry" />
        </mxCell>
        <mxCell id="slfy005rtpeVditU27t0-78" value="$$\sum$$" style="ellipse;whiteSpace=wrap;html=1;aspect=fixed;strokeColor=#000000;strokeWidth=1;fillColor=none;" parent="1" vertex="1">
          <mxGeometry x="587" y="880" width="50" height="50" as="geometry" />
        </mxCell>
        <mxCell id="slfy005rtpeVditU27t0-79" value="" style="endArrow=classic;html=1;entryX=0;entryY=0.5;entryDx=0;entryDy=0;exitX=1;exitY=0.5;exitDx=0;exitDy=0;" parent="1" source="slfy005rtpeVditU27t0-63" target="slfy005rtpeVditU27t0-78" edge="1">
          <mxGeometry width="50" height="50" relative="1" as="geometry">
            <mxPoint x="387" y="820" as="sourcePoint" />
            <mxPoint x="437" y="770" as="targetPoint" />
          </mxGeometry>
        </mxCell>
        <mxCell id="slfy005rtpeVditU27t0-80" value="" style="endArrow=classic;html=1;entryX=0;entryY=0.5;entryDx=0;entryDy=0;exitX=1;exitY=0.5;exitDx=0;exitDy=0;" parent="1" source="slfy005rtpeVditU27t0-64" target="slfy005rtpeVditU27t0-78" edge="1">
          <mxGeometry width="50" height="50" relative="1" as="geometry">
            <mxPoint x="387" y="820" as="sourcePoint" />
            <mxPoint x="437" y="770" as="targetPoint" />
          </mxGeometry>
        </mxCell>
        <mxCell id="slfy005rtpeVditU27t0-81" value="" style="endArrow=classic;html=1;entryX=0;entryY=0.5;entryDx=0;entryDy=0;exitX=1;exitY=0.5;exitDx=0;exitDy=0;" parent="1" source="slfy005rtpeVditU27t0-65" target="slfy005rtpeVditU27t0-78" edge="1">
          <mxGeometry width="50" height="50" relative="1" as="geometry">
            <mxPoint x="387" y="820" as="sourcePoint" />
            <mxPoint x="437" y="770" as="targetPoint" />
          </mxGeometry>
        </mxCell>
        <mxCell id="slfy005rtpeVditU27t0-84" value="&lt;b&gt;&lt;font style=&quot;font-size: 13px&quot;&gt;Summating&lt;br&gt;Junction&lt;br&gt;&lt;/font&gt;&lt;/b&gt;" style="text;html=1;strokeColor=none;fillColor=none;align=center;verticalAlign=middle;whiteSpace=wrap;rounded=0;" parent="1" vertex="1">
          <mxGeometry x="592" y="850" width="40" height="20" as="geometry" />
        </mxCell>
        <mxCell id="slfy005rtpeVditU27t0-85" value="" style="endArrow=classic;html=1;exitX=1;exitY=0.5;exitDx=0;exitDy=0;" parent="1" source="slfy005rtpeVditU27t0-78" target="slfy005rtpeVditU27t0-86" edge="1">
          <mxGeometry width="50" height="50" relative="1" as="geometry">
            <mxPoint x="457" y="860" as="sourcePoint" />
            <mxPoint x="507" y="810" as="targetPoint" />
          </mxGeometry>
        </mxCell>
        <mxCell id="slfy005rtpeVditU27t0-86" value="$$f(·)$$" style="whiteSpace=wrap;html=1;aspect=fixed;strokeColor=#000000;strokeWidth=1;fillColor=none;" parent="1" vertex="1">
          <mxGeometry x="660.75" y="888.75" width="32.5" height="32.5" as="geometry" />
        </mxCell>
        <mxCell id="slfy005rtpeVditU27t0-87" value="&lt;b&gt;&lt;font style=&quot;font-size: 13px&quot;&gt;Activation&amp;nbsp;&lt;br&gt;Function&lt;br&gt;&lt;/font&gt;&lt;/b&gt;" style="text;html=1;strokeColor=none;fillColor=none;align=center;verticalAlign=middle;whiteSpace=wrap;rounded=0;" parent="1" vertex="1">
          <mxGeometry x="657" y="865" width="40" height="20" as="geometry" />
        </mxCell>
        <mxCell id="slfy005rtpeVditU27t0-88" value="" style="endArrow=classic;html=1;exitX=1;exitY=0.5;exitDx=0;exitDy=0;" parent="1" source="slfy005rtpeVditU27t0-86" target="slfy005rtpeVditU27t0-90" edge="1">
          <mxGeometry width="50" height="50" relative="1" as="geometry">
            <mxPoint x="457" y="860" as="sourcePoint" />
            <mxPoint x="507" y="810" as="targetPoint" />
          </mxGeometry>
        </mxCell>
        <mxCell id="slfy005rtpeVditU27t0-90" value="Y&lt;sub&gt;k&lt;/sub&gt;" style="text;html=1;strokeColor=none;fillColor=none;align=center;verticalAlign=middle;whiteSpace=wrap;rounded=0;" parent="1" vertex="1">
          <mxGeometry x="707" y="896.88" width="30" height="16.25" as="geometry" />
        </mxCell>
        <mxCell id="slfy005rtpeVditU27t0-91" value="" style="endArrow=blockThin;html=1;entryX=0.5;entryY=1;entryDx=0;entryDy=0;exitX=0.5;exitY=0;exitDx=0;exitDy=0;endFill=1;" parent="1" source="slfy005rtpeVditU27t0-92" target="slfy005rtpeVditU27t0-78" edge="1">
          <mxGeometry width="50" height="50" relative="1" as="geometry">
            <mxPoint x="457" y="860" as="sourcePoint" />
            <mxPoint x="507" y="810" as="targetPoint" />
          </mxGeometry>
        </mxCell>
        <mxCell id="slfy005rtpeVditU27t0-92" value="$$\theta_j$$&lt;b&gt;&lt;br&gt;&lt;/b&gt;" style="text;html=1;strokeColor=none;fillColor=none;align=center;verticalAlign=middle;whiteSpace=wrap;rounded=0;" parent="1" vertex="1">
          <mxGeometry x="594.5" y="940" width="35" height="45" as="geometry" />
        </mxCell>
        <mxCell id="slfy005rtpeVditU27t0-93" value="&lt;b&gt;Bias&lt;/b&gt;" style="text;html=1;strokeColor=none;fillColor=none;align=center;verticalAlign=middle;whiteSpace=wrap;rounded=0;" parent="1" vertex="1">
          <mxGeometry x="617" y="945" width="40" height="20" as="geometry" />
        </mxCell>
        <mxCell id="slfy005rtpeVditU27t0-94" value="" style="ellipse;whiteSpace=wrap;html=1;aspect=fixed;fontFamily=Helvetica;fontSize=13;fillColor=#bac8d3;strokeColor=#23445d;" parent="1" vertex="1">
          <mxGeometry x="200" y="888.75" width="30" height="30" as="geometry" />
        </mxCell>
        <mxCell id="slfy005rtpeVditU27t0-95" value="" style="ellipse;whiteSpace=wrap;html=1;aspect=fixed;fontFamily=Times New Roman;fontSize=10;" parent="1" vertex="1">
          <mxGeometry x="200" y="930" width="30" height="30" as="geometry" />
        </mxCell>
        <mxCell id="slfy005rtpeVditU27t0-96" value="&lt;b&gt;&lt;i&gt;&lt;u&gt;&lt;font style=&quot;font-size: 16px&quot;&gt;Input Unit&lt;/font&gt;&lt;/u&gt;&lt;/i&gt;&lt;/b&gt;" style="text;html=1;strokeColor=none;fillColor=none;align=center;verticalAlign=middle;whiteSpace=wrap;rounded=0;" parent="1" vertex="1">
          <mxGeometry x="240" y="896.88" width="100" height="20" as="geometry" />
        </mxCell>
        <mxCell id="slfy005rtpeVditU27t0-97" value="&lt;b&gt;&lt;i&gt;&lt;u&gt;&lt;font style=&quot;font-size: 16px&quot;&gt;Neural Unit&lt;/font&gt;&lt;/u&gt;&lt;/i&gt;&lt;/b&gt;" style="text;html=1;strokeColor=none;fillColor=none;align=center;verticalAlign=middle;whiteSpace=wrap;rounded=0;" parent="1" vertex="1">
          <mxGeometry x="240" y="935" width="100" height="20" as="geometry" />
        </mxCell>
      </root>
    </mxGraphModel>
  </diagram>
</mxfile>
